<svg width="316" height="81" viewBox="0 0 316 81" fill="none" xmlns="http://www.w3.org/2000/svg">
<path d="M51.2954 7.54446V51.6486H40.5454V25.2111L30.6912 51.6486H22.0246L12.0871 25.1486V51.6486H1.35791V7.54446H14.0454L26.4204 38.0861L38.6704 7.54446H51.2954Z" fill="#141414"/>
<path d="M66.5557 12.9611C64.6807 12.9611 63.1443 12.409 61.9516 11.2945C60.7537 10.1851 60.1599 8.81008 60.1599 7.16945C60.1599 5.50279 60.7537 4.11737 61.9516 3.00279C63.1443 1.89341 64.6807 1.33612 66.5557 1.33612C68.3995 1.33612 69.9203 1.89341 71.1182 3.00279C72.311 4.11737 72.9099 5.50279 72.9099 7.16945C72.9099 8.81008 72.311 10.1851 71.1182 11.2945C69.9203 12.409 68.3995 12.9611 66.5557 12.9611ZM71.8891 16.607V51.6486H61.1599V16.607H71.8891Z" fill="#141414"/>
<path d="M92.5563 22.4403C93.8167 20.5132 95.3896 18.9976 97.2646 17.8986C99.1501 16.7893 101.249 16.232 103.556 16.232V27.5861H100.598C97.9157 27.5861 95.9001 28.1643 94.5563 29.3153C93.223 30.4715 92.5563 32.4924 92.5563 35.3778V51.6486H81.8271V16.607H92.5563V22.4403Z" fill="#141414"/>
<path d="M108.703 34.0653C108.703 30.4715 109.38 27.3101 110.745 24.5861C112.104 21.8674 113.958 19.7736 116.307 18.3153C118.651 16.8465 121.271 16.107 124.161 16.107C126.63 16.107 128.797 16.607 130.661 17.607C132.521 18.607 133.958 19.9299 134.974 21.5653V16.607H145.703V51.6486H134.974V46.6903C133.917 48.3153 132.458 49.6382 130.599 50.6486C128.734 51.6486 126.568 52.1486 124.099 52.1486C121.25 52.1486 118.651 51.409 116.307 49.9195C113.958 48.4351 112.104 46.3257 110.745 43.5861C109.38 40.8361 108.703 37.6643 108.703 34.0653ZM134.974 34.1278C134.974 31.4507 134.229 29.3361 132.745 27.7945C131.255 26.2424 129.443 25.4611 127.307 25.4611C125.167 25.4611 123.354 26.2268 121.87 27.7528C120.38 29.284 119.641 31.3882 119.641 34.0653C119.641 36.7476 120.38 38.8726 121.87 40.4403C123.354 42.0132 125.167 42.7945 127.307 42.7945C129.443 42.7945 131.255 42.0236 132.745 40.482C134.229 38.9299 134.974 36.8101 134.974 34.1278Z" fill="#141414"/>
<path d="M153.805 29.5445C153.805 25.1851 154.747 21.3049 156.638 17.8986C158.523 14.482 161.148 11.8257 164.513 9.91946C167.888 8.0028 171.711 7.04446 175.992 7.04446C181.226 7.04446 185.706 8.42988 189.43 11.1903C193.148 13.9559 195.643 17.7268 196.909 22.5028H185.096C184.221 20.659 182.971 19.2528 181.346 18.2945C179.732 17.3361 177.909 16.857 175.867 16.857C172.56 16.857 169.877 18.0132 167.825 20.3153C165.768 22.607 164.742 25.6851 164.742 29.5445C164.742 33.3934 165.768 36.4715 167.825 38.7736C169.877 41.0809 172.56 42.232 175.867 42.232C177.909 42.232 179.732 41.7528 181.346 40.7945C182.971 39.8257 184.221 38.4143 185.096 36.5653H196.909C195.643 41.3465 193.148 45.107 189.43 47.857C185.706 50.5965 181.226 51.9611 175.992 51.9611C171.711 51.9611 167.888 51.0132 164.513 49.107C161.148 47.2059 158.523 44.5601 156.638 41.1695C154.747 37.7684 153.805 33.8934 153.805 29.5445Z" fill="#141414"/>
<path d="M227.182 16.232C231.208 16.232 234.432 17.5601 236.849 20.2111C239.276 22.8674 240.495 26.5184 240.495 31.1695V51.6486H229.828V32.607C229.828 30.2736 229.214 28.4611 227.995 27.1695C226.786 25.8674 225.151 25.2111 223.099 25.2111C221.042 25.2111 219.401 25.8674 218.182 27.1695C216.974 28.4611 216.37 30.2736 216.37 32.607V51.6486H205.641V5.16946H216.37V21.3153C217.464 19.7632 218.953 18.5236 220.828 17.607C222.714 16.6903 224.833 16.232 227.182 16.232Z" fill="#141414"/>
<path d="M247.97 34.0653C247.97 30.4715 248.647 27.3101 250.011 24.5861C251.371 21.8674 253.225 19.7736 255.574 18.3153C257.918 16.8465 260.537 16.107 263.428 16.107C265.897 16.107 268.063 16.607 269.928 17.607C271.787 18.607 273.225 19.9299 274.24 21.5653V16.607H284.97V51.6486H274.24V46.6903C273.183 48.3153 271.725 49.6382 269.865 50.6486C268.001 51.6486 265.834 52.1486 263.365 52.1486C260.516 52.1486 257.918 51.409 255.574 49.9195C253.225 48.4351 251.371 46.3257 250.011 43.5861C248.647 40.8361 247.97 37.6643 247.97 34.0653ZM274.24 34.1278C274.24 31.4507 273.496 29.3361 272.011 27.7945C270.522 26.2424 268.709 25.4611 266.574 25.4611C264.433 25.4611 262.621 26.2268 261.136 27.7528C259.647 29.284 258.907 31.3882 258.907 34.0653C258.907 36.7476 259.647 38.8726 261.136 40.4403C262.621 42.0132 264.433 42.7945 266.574 42.7945C268.709 42.7945 270.522 42.0236 272.011 40.482C273.496 38.9299 274.24 36.8101 274.24 34.1278Z" fill="#141414"/>
<path d="M314.446 42.5445V51.6486H308.967C305.076 51.6486 302.04 50.7007 299.863 48.7945C297.68 46.8934 296.592 43.7841 296.592 39.4611V25.5236H292.321V16.607H296.592V8.06531H307.342V16.607H314.383V25.5236H307.342V39.5861C307.342 40.6278 307.592 41.3882 308.092 41.857C308.592 42.3153 309.43 42.5445 310.613 42.5445H314.446Z" fill="#141414"/>
<path d="M80.9897 79.9643C80.1981 79.9643 79.4325 79.8445 78.6981 79.6102C77.9741 79.3602 77.4064 79.0425 76.9897 78.6518L77.5522 77.4852C77.9377 77.8498 78.4481 78.1414 79.0731 78.3602C79.6981 78.5841 80.3335 78.6935 80.9897 78.6935C81.8491 78.6935 82.4897 78.5477 82.9064 78.256C83.3335 77.9643 83.5522 77.5789 83.5522 77.0893C83.5522 76.73 83.4325 76.4383 83.1981 76.2143C82.9741 75.9956 82.6877 75.8289 82.3439 75.7143C81.995 75.5893 81.5106 75.4539 80.8856 75.2977C80.1043 75.1206 79.4741 74.9383 78.9897 74.756C78.5158 74.5633 78.1043 74.2716 77.7606 73.881C77.4116 73.48 77.2397 72.9435 77.2397 72.2768C77.2397 71.7248 77.3856 71.2248 77.6772 70.7768C77.9793 70.3341 78.4272 69.98 79.0106 69.7143C79.6043 69.4383 80.3491 69.2977 81.2397 69.2977C81.8491 69.2977 82.4533 69.381 83.0522 69.5477C83.646 69.7039 84.1564 69.9331 84.5731 70.2352L84.0939 71.4227C83.646 71.1466 83.1772 70.9383 82.6772 70.7977C82.1877 70.6466 81.7085 70.5685 81.2397 70.5685C80.3908 70.5685 79.7502 70.7248 79.3231 71.0268C78.9064 71.3341 78.6981 71.73 78.6981 72.2143C78.6981 72.5789 78.8127 72.8706 79.0522 73.0893C79.3022 73.3133 79.5991 73.4852 79.9481 73.6102C80.2918 73.7352 80.771 73.8706 81.3856 74.006C82.1616 74.2039 82.7866 74.3966 83.2606 74.5893C83.745 74.7716 84.1564 75.0581 84.4897 75.4435C84.8335 75.8341 85.0106 76.355 85.0106 77.006C85.0106 77.5477 84.8543 78.0477 84.5522 78.506C84.2606 78.9539 83.8075 79.3081 83.1981 79.5685C82.5991 79.8341 81.8647 79.9643 80.9897 79.9643Z" fill="#2879FF"/>
<path d="M93.8467 79.9643C92.7894 79.9643 91.8363 79.7352 90.9925 79.2768C90.1592 78.8081 89.4977 78.1675 89.0133 77.3602C88.5238 76.5425 88.2842 75.631 88.2842 74.631C88.2842 73.631 88.5238 72.73 89.0133 71.9227C89.4977 71.105 90.1592 70.4643 90.9925 70.006C91.8363 69.5373 92.7894 69.2977 93.8467 69.2977C94.8883 69.2977 95.8258 69.5373 96.6592 70.006C97.5029 70.4643 98.1644 71.0998 98.6383 71.9018C99.1071 72.7091 99.3467 73.6206 99.3467 74.631C99.3467 75.6466 99.1071 76.5581 98.6383 77.3602C98.1644 78.1675 97.5029 78.8081 96.6592 79.2768C95.8258 79.7352 94.8883 79.9643 93.8467 79.9643ZM93.8467 78.631C94.6071 78.631 95.2894 78.4591 95.8883 78.1102C96.4977 77.7664 96.9769 77.2873 97.3258 76.6727C97.6852 76.0633 97.8675 75.381 97.8675 74.631C97.8675 73.881 97.6852 73.2039 97.3258 72.5893C96.9769 71.98 96.4977 71.5008 95.8883 71.1518C95.2894 70.8081 94.6071 70.631 93.8467 70.631C93.0811 70.631 92.3883 70.8081 91.7633 71.1518C91.1383 71.5008 90.6488 71.98 90.305 72.5893C89.9561 73.2039 89.7842 73.881 89.7842 74.631C89.7842 75.381 89.9561 76.0633 90.305 76.6727C90.6488 77.2873 91.1383 77.7664 91.7633 78.1102C92.3883 78.4591 93.0811 78.631 93.8467 78.631Z" fill="#2879FF"/>
<path d="M108.234 79.9643C107.192 79.9643 106.254 79.7352 105.421 79.2768C104.588 78.8081 103.926 78.1675 103.442 77.3602C102.968 76.5581 102.734 75.6466 102.734 74.631C102.734 73.6206 102.968 72.7091 103.442 71.9018C103.926 71.0998 104.588 70.4643 105.421 70.006C106.265 69.5373 107.213 69.2977 108.254 69.2977C109.072 69.2977 109.817 69.4383 110.484 69.7143C111.161 69.9956 111.739 70.3966 112.213 70.9227L111.254 71.8602C110.463 71.0425 109.484 70.631 108.317 70.631C107.536 70.631 106.838 70.8081 106.213 71.1518C105.588 71.5008 105.098 71.98 104.754 72.5893C104.405 73.2039 104.234 73.881 104.234 74.631C104.234 75.381 104.405 76.0633 104.754 76.6727C105.098 77.2873 105.588 77.7664 106.213 78.1102C106.838 78.4591 107.536 78.631 108.317 78.631C109.484 78.631 110.463 78.2143 111.254 77.381L112.213 78.3185C111.739 78.8602 111.161 79.2716 110.484 79.5477C109.801 79.8289 109.051 79.9643 108.234 79.9643Z" fill="#2879FF"/>
<path d="M116.296 69.4227H117.775V79.8393H116.296V69.4227Z" fill="#2879FF"/>
<path d="M129.483 77.2352H123.963L122.817 79.8393H121.275L126.004 69.4227H127.463L132.192 79.8393H130.629L129.483 77.2352ZM128.963 76.0477L126.733 70.9435L124.483 76.0477H128.963Z" fill="#2879FF"/>
<path d="M135.7 69.4227H137.18V78.5477H142.825V79.8393H135.7V69.4227Z" fill="#2879FF"/>
<path d="M162.087 79.8393V72.256L158.316 78.5685H157.629L153.879 72.2977V79.8393H152.441V69.4227H153.671L158.004 76.7352L162.296 69.4227H163.504L163.525 79.8393H162.087Z" fill="#2879FF"/>
<path d="M176.164 78.5477V79.8393H168.602V69.4227H175.956V70.7143H170.081V73.9227H175.31V75.1935H170.081V78.5477H176.164Z" fill="#2879FF"/>
<path d="M183.563 79.9643C182.771 79.9643 182.006 79.8445 181.271 79.6102C180.547 79.3602 179.98 79.0425 179.563 78.6518L180.126 77.4852C180.511 77.8498 181.021 78.1414 181.646 78.3602C182.271 78.5841 182.907 78.6935 183.563 78.6935C184.422 78.6935 185.063 78.5477 185.48 78.256C185.907 77.9643 186.126 77.5789 186.126 77.0893C186.126 76.73 186.006 76.4383 185.771 76.2143C185.547 75.9956 185.261 75.8289 184.917 75.7143C184.568 75.5893 184.084 75.4539 183.459 75.2977C182.678 75.1206 182.047 74.9383 181.563 74.756C181.089 74.5633 180.678 74.2716 180.334 73.881C179.985 73.48 179.813 72.9435 179.813 72.2768C179.813 71.7248 179.959 71.2248 180.251 70.7768C180.553 70.3341 181.001 69.98 181.584 69.7143C182.178 69.4383 182.922 69.2977 183.813 69.2977C184.422 69.2977 185.027 69.381 185.626 69.5477C186.219 69.7039 186.73 69.9331 187.146 70.2352L186.667 71.4227C186.219 71.1466 185.751 70.9383 185.251 70.7977C184.761 70.6466 184.282 70.5685 183.813 70.5685C182.964 70.5685 182.324 70.7248 181.896 71.0268C181.48 71.3341 181.271 71.73 181.271 72.2143C181.271 72.5789 181.386 72.8706 181.626 73.0893C181.876 73.3133 182.172 73.4852 182.521 73.6102C182.865 73.7352 183.344 73.8706 183.959 74.006C184.735 74.2039 185.36 74.3966 185.834 74.5893C186.318 74.7716 186.73 75.0581 187.063 75.4435C187.407 75.8341 187.584 76.355 187.584 77.006C187.584 77.5477 187.428 78.0477 187.126 78.506C186.834 78.9539 186.381 79.3081 185.771 79.5685C185.172 79.8341 184.438 79.9643 183.563 79.9643Z" fill="#2879FF"/>
<path d="M194.754 79.9643C193.962 79.9643 193.196 79.8445 192.462 79.6102C191.738 79.3602 191.17 79.0425 190.754 78.6518L191.316 77.4852C191.701 77.8498 192.212 78.1414 192.837 78.3602C193.462 78.5841 194.097 78.6935 194.754 78.6935C195.613 78.6935 196.254 78.5477 196.67 78.256C197.097 77.9643 197.316 77.5789 197.316 77.0893C197.316 76.73 197.196 76.4383 196.962 76.2143C196.738 75.9956 196.451 75.8289 196.108 75.7143C195.759 75.5893 195.274 75.4539 194.649 75.2977C193.868 75.1206 193.238 74.9383 192.754 74.756C192.28 74.5633 191.868 74.2716 191.524 73.881C191.175 73.48 191.004 72.9435 191.004 72.2768C191.004 71.7248 191.149 71.2248 191.441 70.7768C191.743 70.3341 192.191 69.98 192.774 69.7143C193.368 69.4383 194.113 69.2977 195.004 69.2977C195.613 69.2977 196.217 69.381 196.816 69.5477C197.41 69.7039 197.92 69.9331 198.337 70.2352L197.858 71.4227C197.41 71.1466 196.941 70.9383 196.441 70.7977C195.951 70.6466 195.472 70.5685 195.004 70.5685C194.155 70.5685 193.514 70.7248 193.087 71.0268C192.67 71.3341 192.462 71.73 192.462 72.2143C192.462 72.5789 192.576 72.8706 192.816 73.0893C193.066 73.3133 193.363 73.4852 193.712 73.6102C194.056 73.7352 194.535 73.8706 195.149 74.006C195.925 74.2039 196.55 74.3966 197.024 74.5893C197.509 74.7716 197.92 75.0581 198.254 75.4435C198.597 75.8341 198.774 76.355 198.774 77.006C198.774 77.5477 198.618 78.0477 198.316 78.506C198.024 78.9539 197.571 79.3081 196.962 79.5685C196.363 79.8341 195.629 79.9643 194.754 79.9643Z" fill="#2879FF"/>
<path d="M209.527 77.2352H204.006L202.861 79.8393H201.319L206.048 69.4227H207.506L212.236 79.8393H210.673L209.527 77.2352ZM209.006 76.0477L206.777 70.9435L204.527 76.0477H209.006Z" fill="#2879FF"/>
<path d="M222.953 74.5685H224.39V78.631C223.875 79.0633 223.27 79.3966 222.578 79.631C221.895 79.8498 221.187 79.9643 220.453 79.9643C219.395 79.9643 218.442 79.7352 217.598 79.2768C216.765 78.8081 216.104 78.1675 215.619 77.3602C215.13 76.5581 214.89 75.6466 214.89 74.631C214.89 73.6206 215.13 72.7091 215.619 71.9018C216.104 71.0841 216.77 70.4435 217.619 69.9852C218.463 69.5268 219.416 69.2977 220.473 69.2977C221.307 69.2977 222.062 69.4383 222.744 69.7143C223.421 69.9956 224 70.3966 224.473 70.9227L223.557 71.8393C222.723 71.0373 221.713 70.631 220.536 70.631C219.744 70.631 219.026 70.8081 218.39 71.1518C217.765 71.4852 217.27 71.9591 216.911 72.5685C216.562 73.1831 216.39 73.8706 216.39 74.631C216.39 75.381 216.562 76.0633 216.911 76.6727C217.27 77.2873 217.765 77.7664 218.39 78.1102C219.026 78.4591 219.734 78.631 220.515 78.631C221.442 78.631 222.255 78.4123 222.953 77.9643V74.5685Z" fill="#2879FF"/>
<path d="M236.744 78.5477V79.8393H229.182V69.4227H236.536V70.7143H230.661V73.9227H235.89V75.1935H230.661V78.5477H236.744Z" fill="#2879FF"/>
</svg>
